<svg width="181" height="181" viewBox="0 0 181 181" fill="none" xmlns="http://www.w3.org/2000/svg">
<path d="M90.1045 99.4105C94.9736 99.4105 98.9208 95.4634 98.9208 90.5943C98.9208 85.7252 94.9736 81.7781 90.1045 81.7781C85.2355 81.7781 81.2883 85.7252 81.2883 90.5943C81.2883 95.4634 85.2355 99.4105 90.1045 99.4105Z" fill="#61DAFB"/>
<path d="M90.1045 108.657C116.231 108.657 137.411 100.57 137.411 90.5943C137.411 80.6186 116.231 72.5317 90.1045 72.5317C63.9778 72.5317 42.7979 80.6186 42.7979 90.5943C42.7979 100.57 63.9778 108.657 90.1045 108.657Z" stroke="#61DAFB" stroke-width="5"/>
<path d="M74.4618 99.6255C87.5252 122.252 105.119 136.551 113.758 131.563C122.397 126.575 118.81 104.189 105.747 81.563C92.6837 58.9366 75.0903 44.6377 66.4511 49.6255C57.812 54.6133 61.3985 76.9991 74.4618 99.6255Z" stroke="#61DAFB" stroke-width="5"/>
<path d="M74.4619 81.5629C61.3985 104.189 57.812 126.575 66.4512 131.563C75.0903 136.551 92.6837 122.252 105.747 99.6255C118.81 76.9991 122.397 54.6133 113.758 49.6255C105.119 44.6376 87.5252 58.9365 74.4619 81.5629Z" stroke="#61DAFB" stroke-width="5"/>
</svg>
