<svg width="181" height="181" viewBox="0 0 181 181" fill="none" xmlns="http://www.w3.org/2000/svg">
<path d="M138.666 85.7327L95.0054 42.0741C92.4925 39.5596 88.4144 39.5596 85.8983 42.0741L76.8319 51.1405L88.3331 62.6416C91.0058 61.7385 94.0706 62.3444 96.2011 64.4749C98.3417 66.619 98.9433 69.71 98.0183 72.3913L109.102 83.4756C111.784 82.5518 114.878 83.1495 117.02 85.2948C120.013 88.287 120.013 93.1366 117.02 96.1307C114.026 99.1252 109.176 99.1252 106.18 96.1307C103.929 93.8768 103.373 90.5702 104.512 87.7963L94.1757 77.4596L94.1745 104.662C94.9238 105.032 95.6082 105.521 96.2011 106.111C99.1944 109.103 99.1944 113.953 96.2011 116.949C93.2069 119.942 88.355 119.942 85.3651 116.949C82.3718 113.953 82.3718 109.103 85.3651 106.111C86.0825 105.393 86.935 104.825 87.8733 104.439V76.9834C86.9336 76.5998 86.0806 76.0311 85.3651 75.3112C83.0972 73.0463 82.5519 69.7186 83.714 66.9338L72.3765 55.5952L42.439 85.5307C39.9233 88.0475 39.9233 92.126 42.439 94.6409L86.1007 138.3C88.6143 140.815 92.6917 140.815 95.2085 138.3L138.666 94.8436C141.181 92.328 141.181 88.2471 138.666 85.7327" fill="#DE4C36"/>
</svg>
